<svg width="120" height="42" viewBox="0 0 120 42" fill="none" xmlns="http://www.w3.org/2000/svg">
<path d="M31.8946 17.89L30.8446 13.52C30.6246 12.62 29.8446 12 28.9346 12H15.0446C14.1446 12 13.3546 12.63 13.1446 13.52L12.0946 17.89C11.8546 18.91 12.0746 19.95 12.7146 20.77C12.7946 20.88 12.9046 20.96 12.9946 21.06V28C12.9946 29.1 13.8946 30 14.9946 30H28.9946C30.0946 30 30.9946 29.1 30.9946 28V21.06C31.0846 20.97 31.1946 20.88 31.2746 20.78C31.9146 19.96 32.1446 18.91 31.8946 17.89ZM28.9046 13.99L29.9546 18.36C30.0546 18.78 29.9646 19.2 29.7046 19.53C29.5646 19.71 29.2646 20 28.7646 20C28.1546 20 27.6246 19.51 27.5546 18.86L26.9746 14L28.9046 13.99ZM22.9946 14H24.9546L25.4946 18.52C25.5446 18.91 25.4246 19.3 25.1646 19.59C24.9446 19.85 24.6246 20 24.2146 20C23.5446 20 22.9946 19.41 22.9946 18.69V14ZM18.4846 18.52L19.0346 14H20.9946V18.69C20.9946 19.41 20.4446 20 19.7046 20C19.3646 20 19.0546 19.85 18.8146 19.59C18.5646 19.3 18.4446 18.91 18.4846 18.52ZM14.0346 18.36L15.0446 14H17.0146L16.4346 18.86C16.3546 19.51 15.8346 20 15.2246 20C14.7346 20 14.4246 19.71 14.2946 19.53C14.0246 19.21 13.9346 18.78 14.0346 18.36ZM14.9946 28V21.97C15.0746 21.98 15.1446 22 15.2246 22C16.0946 22 16.8846 21.64 17.4646 21.05C18.0646 21.65 18.8646 22 19.7746 22C20.6446 22 21.4246 21.64 22.0046 21.07C22.5946 21.64 23.3946 22 24.2946 22C25.1346 22 25.9346 21.65 26.5346 21.05C27.1146 21.64 27.9046 22 28.7746 22C28.8546 22 28.9246 21.98 29.0046 21.97V28H14.9946Z" fill="#00B4D8"/>
<rect x="0.5" y="0.5" width="42.9936" height="41" rx="7.5" stroke="#00B4D8"/>
<path d="M54.6602 21L65.3268 21" stroke="#374151" stroke-linecap="round"/>
<path d="M65.3268 21L62.6602 23.6667" stroke="#374151" stroke-linecap="round"/>
<path d="M65.3268 20.9999L62.6602 18.3333" stroke="#374151" stroke-linecap="round"/>
<path d="M107.888 17.89L106.838 13.52C106.618 12.62 105.838 12 104.928 12H91.0383C90.1383 12 89.3483 12.63 89.1383 13.52L88.0883 17.89C87.8483 18.91 88.0683 19.95 88.7083 20.77C88.7883 20.88 88.8983 20.96 88.9883 21.06V28C88.9883 29.1 89.8883 30 90.9883 30H104.988C106.088 30 106.988 29.1 106.988 28V21.06C107.078 20.97 107.188 20.88 107.268 20.78C107.908 19.96 108.138 18.91 107.888 17.89ZM104.898 13.99L105.948 18.36C106.048 18.78 105.958 19.2 105.698 19.53C105.558 19.71 105.258 20 104.758 20C104.148 20 103.618 19.51 103.548 18.86L102.968 14L104.898 13.99ZM98.9883 14H100.948L101.488 18.52C101.538 18.91 101.418 19.3 101.158 19.59C100.938 19.85 100.618 20 100.208 20C99.5383 20 98.9883 19.41 98.9883 18.69V14ZM94.4783 18.52L95.0283 14H96.9883V18.69C96.9883 19.41 96.4383 20 95.6983 20C95.3583 20 95.0483 19.85 94.8083 19.59C94.5583 19.3 94.4383 18.91 94.4783 18.52ZM90.0283 18.36L91.0383 14H93.0083L92.4283 18.86C92.3483 19.51 91.8283 20 91.2183 20C90.7283 20 90.4183 19.71 90.2883 19.53C90.0183 19.21 89.9283 18.78 90.0283 18.36ZM90.9883 28V21.97C91.0683 21.98 91.1383 22 91.2183 22C92.0883 22 92.8783 21.64 93.4583 21.05C94.0583 21.65 94.8583 22 95.7683 22C96.6383 22 97.4183 21.64 97.9983 21.07C98.5883 21.64 99.3883 22 100.288 22C101.128 22 101.928 21.65 102.528 21.05C103.108 21.64 103.898 22 104.768 22C104.848 22 104.918 21.98 104.998 21.97V28H90.9883Z" fill="#00B4D8"/>
<rect x="76.4937" y="0.5" width="42.9936" height="41" rx="7.5" stroke="#00B4D8"/>
</svg>
