<svg width="194" height="42" viewBox="0 0 194 42" fill="none" xmlns="http://www.w3.org/2000/svg">
<path d="M31.9073 17.89L30.8573 13.52C30.6373 12.62 29.8573 12 28.9473 12H15.0573C14.1573 12 13.3673 12.63 13.1573 13.52L12.1073 17.89C11.8673 18.91 12.0873 19.95 12.7273 20.77C12.8073 20.88 12.9173 20.96 13.0073 21.06V28C13.0073 29.1 13.9073 30 15.0073 30H29.0073C30.1073 30 31.0073 29.1 31.0073 28V21.06C31.0973 20.97 31.2073 20.88 31.2873 20.78C31.9273 19.96 32.1573 18.91 31.9073 17.89ZM28.9173 13.99L29.9673 18.36C30.0673 18.78 29.9773 19.2 29.7173 19.53C29.5773 19.71 29.2773 20 28.7773 20C28.1673 20 27.6373 19.51 27.5673 18.86L26.9873 14L28.9173 13.99ZM23.0073 14H24.9673L25.5073 18.52C25.5573 18.91 25.4373 19.3 25.1773 19.59C24.9573 19.85 24.6373 20 24.2273 20C23.5573 20 23.0073 19.41 23.0073 18.69V14ZM18.4973 18.52L19.0473 14H21.0073V18.69C21.0073 19.41 20.4573 20 19.7173 20C19.3773 20 19.0673 19.85 18.8273 19.59C18.5773 19.3 18.4573 18.91 18.4973 18.52ZM14.0473 18.36L15.0573 14H17.0273L16.4473 18.86C16.3673 19.51 15.8473 20 15.2373 20C14.7473 20 14.4373 19.71 14.3073 19.53C14.0373 19.21 13.9473 18.78 14.0473 18.36ZM15.0073 28V21.97C15.0873 21.98 15.1573 22 15.2373 22C16.1073 22 16.8973 21.64 17.4773 21.05C18.0773 21.65 18.8773 22 19.7873 22C20.6573 22 21.4373 21.64 22.0173 21.07C22.6073 21.64 23.4073 22 24.3073 22C25.1473 22 25.9473 21.65 26.5473 21.05C27.1273 21.64 27.9173 22 28.7873 22C28.8673 22 28.9373 21.98 29.0173 21.97V28H15.0073Z" fill="#00B4D8"/>
<rect x="0.512695" y="0.5" width="42.9936" height="41" rx="7.5" stroke="#00B4D8"/>
<path d="M54.6731 21L65.3398 21" stroke="#374151" stroke-linecap="round"/>
<path d="M65.3398 21L62.6731 23.6667" stroke="#374151" stroke-linecap="round"/>
<path d="M65.3398 20.9999L62.6731 18.3333" stroke="#374151" stroke-linecap="round"/>
<path d="M107.901 17.89L106.851 13.52C106.631 12.62 105.851 12 104.941 12H91.051C90.151 12 89.361 12.63 89.151 13.52L88.101 17.89C87.861 18.91 88.081 19.95 88.721 20.77C88.801 20.88 88.911 20.96 89.001 21.06V28C89.001 29.1 89.901 30 91.001 30H105.001C106.101 30 107.001 29.1 107.001 28V21.06C107.091 20.97 107.201 20.88 107.281 20.78C107.921 19.96 108.151 18.91 107.901 17.89ZM104.911 13.99L105.961 18.36C106.061 18.78 105.971 19.2 105.711 19.53C105.571 19.71 105.271 20 104.771 20C104.161 20 103.631 19.51 103.561 18.86L102.981 14L104.911 13.99ZM99.001 14H100.961L101.501 18.52C101.551 18.91 101.431 19.3 101.171 19.59C100.951 19.85 100.631 20 100.221 20C99.551 20 99.001 19.41 99.001 18.69V14ZM94.491 18.52L95.041 14H97.001V18.69C97.001 19.41 96.451 20 95.711 20C95.371 20 95.061 19.85 94.821 19.59C94.571 19.3 94.451 18.91 94.491 18.52ZM90.041 18.36L91.051 14H93.021L92.441 18.86C92.361 19.51 91.841 20 91.231 20C90.741 20 90.431 19.71 90.301 19.53C90.031 19.21 89.941 18.78 90.041 18.36ZM91.001 28V21.97C91.081 21.98 91.151 22 91.231 22C92.101 22 92.891 21.64 93.471 21.05C94.071 21.65 94.871 22 95.781 22C96.651 22 97.431 21.64 98.011 21.07C98.601 21.64 99.401 22 100.301 22C101.141 22 101.941 21.65 102.541 21.05C103.121 21.64 103.911 22 104.781 22C104.861 22 104.931 21.98 105.011 21.97V28H91.001Z" fill="#00B4D8"/>
<rect x="76.5063" y="0.5" width="42.9936" height="41" rx="7.5" stroke="#00B4D8"/>
<path d="M130.667 21L141.333 21" stroke="#374151" stroke-linecap="round"/>
<path d="M141.333 21L138.667 23.6667" stroke="#374151" stroke-linecap="round"/>
<path d="M141.333 20.9999L138.667 18.3333" stroke="#374151" stroke-linecap="round"/>
<path d="M173 14.25C174.237 14.25 175.25 15.2625 175.25 16.5C175.25 17.7375 174.237 18.75 173 18.75C171.762 18.75 170.75 17.7375 170.75 16.5C170.75 15.2625 171.762 14.25 173 14.25ZM173 24.375C176.037 24.375 179.525 25.8263 179.75 26.625V27.75H166.25V26.6363C166.475 25.8263 169.962 24.375 173 24.375ZM173 12C170.514 12 168.5 14.0138 168.5 16.5C168.5 18.9862 170.514 21 173 21C175.486 21 177.5 18.9862 177.5 16.5C177.5 14.0138 175.486 12 173 12ZM173 22.125C169.996 22.125 164 23.6325 164 26.625V30H182V26.625C182 23.6325 176.004 22.125 173 22.125Z" fill="#00B4D8"/>
<rect x="152.5" y="0.5" width="41" height="41" rx="7.5" stroke="#00B4D8"/>
</svg>
