<svg width="119" height="42" viewBox="0 0 119 42" fill="none" xmlns="http://www.w3.org/2000/svg">
<path d="M32.401 17.89L31.351 13.52C31.131 12.62 30.351 12 29.441 12H15.551C14.651 12 13.861 12.63 13.651 13.52L12.601 17.89C12.361 18.91 12.581 19.95 13.221 20.77C13.301 20.88 13.411 20.96 13.501 21.06V28C13.501 29.1 14.401 30 15.501 30H29.501C30.601 30 31.501 29.1 31.501 28V21.06C31.591 20.97 31.701 20.88 31.781 20.78C32.421 19.96 32.651 18.91 32.401 17.89ZM29.411 13.99L30.461 18.36C30.561 18.78 30.471 19.2 30.211 19.53C30.071 19.71 29.771 20 29.271 20C28.661 20 28.131 19.51 28.061 18.86L27.481 14L29.411 13.99ZM23.501 14H25.461L26.001 18.52C26.051 18.91 25.931 19.3 25.671 19.59C25.451 19.85 25.131 20 24.721 20C24.051 20 23.501 19.41 23.501 18.69V14ZM18.991 18.52L19.541 14H21.501V18.69C21.501 19.41 20.951 20 20.211 20C19.871 20 19.561 19.85 19.321 19.59C19.071 19.3 18.951 18.91 18.991 18.52ZM14.541 18.36L15.551 14H17.521L16.941 18.86C16.861 19.51 16.341 20 15.731 20C15.241 20 14.931 19.71 14.801 19.53C14.531 19.21 14.441 18.78 14.541 18.36ZM15.501 28V21.97C15.581 21.98 15.651 22 15.731 22C16.601 22 17.391 21.64 17.971 21.05C18.571 21.65 19.371 22 20.281 22C21.151 22 21.931 21.64 22.511 21.07C23.101 21.64 23.901 22 24.801 22C25.641 22 26.441 21.65 27.041 21.05C27.621 21.64 28.411 22 29.281 22C29.361 22 29.431 21.98 29.511 21.97V28H15.501Z" fill="#00B4D8"/>
<rect x="1.00635" y="0.5" width="42.9936" height="41" rx="7.5" stroke="#00B4D8"/>
<path d="M55.1665 21L65.8332 21" stroke="#374151" stroke-linecap="round"/>
<path d="M65.8332 21L63.1665 23.6667" stroke="#374151" stroke-linecap="round"/>
<path d="M65.8332 20.9999L63.1665 18.3333" stroke="#374151" stroke-linecap="round"/>
<path d="M97.5 14.25C98.7375 14.25 99.75 15.2625 99.75 16.5C99.75 17.7375 98.7375 18.75 97.5 18.75C96.2625 18.75 95.25 17.7375 95.25 16.5C95.25 15.2625 96.2625 14.25 97.5 14.25ZM97.5 24.375C100.538 24.375 104.025 25.8263 104.25 26.625V27.75H90.75V26.6363C90.975 25.8263 94.4625 24.375 97.5 24.375ZM97.5 12C95.0138 12 93 14.0138 93 16.5C93 18.9862 95.0138 21 97.5 21C99.9862 21 102 18.9862 102 16.5C102 14.0138 99.9862 12 97.5 12ZM97.5 22.125C94.4963 22.125 88.5 23.6325 88.5 26.625V30H106.5V26.625C106.5 23.6325 100.504 22.125 97.5 22.125Z" fill="#00B4D8"/>
<rect x="77" y="0.5" width="41" height="41" rx="7.5" stroke="#00B4D8"/>
</svg>
